<svg width="" height="" viewBox="0 0 512 512" fill="none" xmlns="http://www.w3.org/2000/svg">
<rect width="512" height="512"/>
<g clip-path="url(#clip0_18_20)">
<path d="M261.536 280.949C280.446 267.674 285.014 241.584 271.739 222.674C258.463 203.765 232.373 199.197 213.464 212.472C194.554 225.748 189.986 251.838 203.262 270.747C206.046 274.713 209.498 278.165 213.464 280.949C191.126 284.789 174.789 304.141 174.75 326.806V384.817C174.749 387.126 176.622 388.999 178.931 389H178.933H296.067C298.376 389.001 300.249 387.128 300.25 384.819V384.817V326.805C300.211 304.141 283.874 284.789 261.536 280.949ZM204.033 246.767C204.033 228.284 219.017 213.3 237.5 213.3C255.983 213.3 270.967 228.284 270.967 246.767C270.967 265.25 255.983 280.233 237.5 280.233C219.026 280.212 204.054 265.241 204.033 246.767ZM291.883 380.633H183.117V326.805C183.14 305.715 200.232 288.624 221.323 288.6H253.678C274.768 288.624 291.86 305.715 291.883 326.805V380.633Z" fill="#B82F52"/>
<path d="M241.683 163.1H233.317V179.833H241.683V163.1Z" fill="#B82F52"/>
<path d="M286.475 173.403L274.643 185.236L280.559 191.152L292.391 179.319L286.475 173.403Z" fill="#B82F52"/>
<path d="M342.083 380.633H325.35V389H342.083V380.633Z" fill="#B82F52"/>
<path d="M342.083 338.8H325.35V347.167H342.083V338.8Z" fill="#B82F52"/>
<path d="M342.083 296.967H325.35V305.333H342.083V296.967Z" fill="#B82F52"/>
<path d="M336.157 252.693L320.283 257.987L322.931 265.924L338.804 260.629L336.157 252.693Z" fill="#B82F52"/>
<path d="M323.159 209.311L307.286 214.605L309.933 222.542L325.807 217.248L323.159 209.311Z" fill="#B82F52"/>
<path d="M188.529 173.413L182.612 179.328L194.443 191.162L200.36 185.247L188.529 173.413Z" fill="#B82F52"/>
<path d="M149.65 380.633H132.917V389H149.65V380.633Z" fill="#B82F52"/>
<path d="M149.65 338.8H132.917V347.167H149.65V338.8Z" fill="#B82F52"/>
<path d="M149.65 296.967H132.917V305.333H149.65V296.967Z" fill="#B82F52"/>
<path d="M138.851 252.696L136.206 260.633L152.081 265.922L154.726 257.985L138.851 252.696Z" fill="#B82F52"/>
<path d="M151.829 209.341L149.182 217.278L165.057 222.571L167.704 214.634L151.829 209.341Z" fill="#B82F52"/>
<path d="M358.817 154.733C351.889 154.726 346.274 149.111 346.267 142.183C346.267 139.873 344.394 138 342.083 138C339.773 138 337.9 139.873 337.9 142.183C337.893 149.111 332.278 154.726 325.35 154.733C323.04 154.733 321.167 156.606 321.167 158.917C321.167 161.227 323.04 163.1 325.35 163.1C332.278 163.107 337.893 168.722 337.9 175.65C337.9 177.96 339.773 179.833 342.083 179.833C344.394 179.833 346.267 177.96 346.267 175.65C346.274 168.722 351.889 163.107 358.817 163.1C361.127 163.1 363 161.227 363 158.917C363 156.606 361.127 154.733 358.817 154.733ZM342.083 163.112C340.889 161.523 339.477 160.11 337.888 158.917C339.477 157.723 340.889 156.31 342.083 154.721C343.277 156.31 344.69 157.723 346.279 158.917C344.69 160.11 343.277 161.523 342.083 163.112Z" fill="#B82F52"/>
<path d="M149.65 154.733C142.722 154.726 137.107 149.111 137.1 142.183C137.1 139.873 135.227 138 132.917 138C130.606 138 128.733 139.873 128.733 142.183C128.726 149.111 123.111 154.726 116.183 154.733C113.873 154.733 112 156.606 112 158.917C112 161.227 113.873 163.1 116.183 163.1C123.111 163.107 128.726 168.722 128.733 175.65C128.733 177.96 130.606 179.833 132.917 179.833C135.227 179.833 137.1 177.96 137.1 175.65C137.107 168.722 142.722 163.107 149.65 163.1C151.96 163.1 153.833 161.227 153.833 158.917C153.833 156.606 151.96 154.733 149.65 154.733ZM132.917 163.112C131.723 161.523 130.31 160.11 128.721 158.917C130.31 157.723 131.723 156.31 132.917 154.721C134.11 156.31 135.523 157.723 137.112 158.917C135.523 160.11 134.11 161.523 132.917 163.112Z" fill="#B82F52"/>
</g>
<defs>
<clipPath id="clip0_18_20">
<rect width="251" height="251" fill="white" transform="translate(112 138)"/>
</clipPath>
</defs>
</svg>
