<svg width="512" height="512" viewBox="0 0 512 512" fill="none" xmlns="http://www.w3.org/2000/svg">
<rect width="512" height="512" />
<path d="M341.781 184.906C341.781 183.866 341.368 182.869 340.633 182.133C339.897 181.398 338.9 180.984 337.859 180.984H314.328C313.288 180.984 312.29 181.398 311.555 182.133C310.819 182.869 310.406 183.866 310.406 184.906V275.109H294.719V231.969C294.719 230.929 294.306 229.931 293.57 229.196C292.835 228.46 291.837 228.047 290.797 228.047H267.266C266.225 228.047 265.228 228.46 264.492 229.196C263.757 229.931 263.344 230.929 263.344 231.969V275.109H247.656V200.594C247.656 199.554 247.243 198.556 246.508 197.821C245.772 197.085 244.775 196.672 243.734 196.672H220.203C219.163 196.672 218.165 197.085 217.43 197.821C216.694 198.556 216.281 199.554 216.281 200.594V275.109H200.594V220.203C200.594 219.163 200.181 218.165 199.445 217.43C198.71 216.694 197.712 216.281 196.672 216.281H173.141C172.1 216.281 171.103 216.694 170.367 217.43C169.632 218.165 169.219 219.163 169.219 220.203V275.109H133.922V282.953H157.453V298.641C157.453 299.681 157.866 300.678 158.602 301.414C159.337 302.149 160.335 302.562 161.375 302.562H172.568C174.39 308.996 176.959 315.195 180.224 321.031L172.305 328.949C171.57 329.684 171.157 330.682 171.157 331.722C171.157 332.762 171.57 333.759 172.305 334.494L200.037 362.226C200.772 362.961 201.77 363.374 202.81 363.374C203.85 363.374 204.847 362.961 205.582 362.226L213.501 354.308C219.336 357.573 225.535 360.142 231.969 361.963V373.156C231.969 374.196 232.382 375.194 233.117 375.929C233.853 376.665 234.85 377.078 235.891 377.078H275.109C276.15 377.078 277.147 376.665 277.883 375.929C278.618 375.194 279.031 374.196 279.031 373.156V361.963C285.465 360.142 291.664 357.573 297.499 354.308L305.418 362.226C306.153 362.961 307.15 363.374 308.19 363.374C309.23 363.374 310.228 362.961 310.963 362.226L338.695 334.494C339.43 333.759 339.843 332.762 339.843 331.722C339.843 330.682 339.43 329.684 338.695 328.949L330.776 321.031C334.041 315.195 336.61 308.996 338.432 302.562H349.625C350.665 302.562 351.663 302.149 352.398 301.414C353.134 300.678 353.547 299.681 353.547 298.641V282.953H377.078V275.109H341.781V184.906ZM318.25 188.828H333.938V275.109H318.25V188.828ZM306.284 282.953C305.316 295.76 299.544 307.728 290.126 316.46C280.709 325.193 268.339 330.045 255.496 330.045C242.653 330.045 230.284 325.193 220.866 316.46C211.448 307.728 205.677 295.76 204.708 282.953H306.284ZM271.188 235.891H286.875V275.109H271.188V235.891ZM224.125 204.516H239.812V275.109H224.125V204.516ZM177.062 224.125H192.75V275.109H177.062V224.125ZM345.703 294.719H335.412C334.534 294.719 333.681 295.014 332.991 295.557C332.3 296.099 331.812 296.858 331.604 297.711C329.712 305.441 326.646 312.834 322.513 319.634C322.059 320.385 321.869 321.266 321.974 322.137C322.079 323.008 322.473 323.818 323.094 324.439L330.376 331.722L308.19 353.908L300.907 346.625C300.286 346.004 299.475 345.61 298.603 345.506C297.731 345.401 296.85 345.592 296.099 346.048C289.3 350.182 281.906 353.245 274.176 355.131C273.323 355.34 272.565 355.83 272.023 356.521C271.481 357.212 271.187 358.065 271.188 358.943V369.234H239.812V358.943C239.813 358.065 239.519 357.212 238.977 356.521C238.435 355.83 237.677 355.34 236.824 355.131C229.094 353.245 221.7 350.182 214.901 346.048C214.15 345.592 213.269 345.401 212.397 345.506C211.525 345.61 210.714 346.004 210.093 346.625L202.81 353.908L180.624 331.722L187.906 324.439C188.527 323.818 188.921 323.008 189.026 322.137C189.131 321.266 188.941 320.385 188.487 319.634C184.354 312.834 181.288 305.441 179.396 297.711C179.188 296.858 178.699 296.099 178.009 295.557C177.319 295.014 176.466 294.719 175.588 294.719H165.297V282.953H196.872C197.832 297.851 204.427 311.824 215.317 322.035C226.207 332.246 240.575 337.929 255.504 337.929C270.432 337.929 284.801 332.246 295.691 322.035C306.581 311.824 313.176 297.851 314.136 282.953H345.703V294.719Z" fill="#B82F52"/>
<path d="M333.938 165.297V137.844C333.938 136.804 333.524 135.806 332.789 135.071C332.053 134.335 331.056 133.922 330.016 133.922H302.562V141.766H321.023L278.561 187.495L234.322 154.316C233.612 153.782 232.742 153.506 231.854 153.532C230.966 153.557 230.113 153.883 229.435 154.457L178.451 197.597L183.518 203.59L232.118 162.465L276.678 195.888C277.453 196.469 278.416 196.744 279.382 196.658C280.347 196.571 281.246 196.131 281.906 195.421L326.094 147.833V165.297H333.938Z" fill="#B82F52"/>
</svg>
