<svg width="900" height="900" viewBox="0 0 512 512" fill="none" xmlns="http://www.w3.org/2000/svg">
<rect width="802" height="802"/>
<g clip-path="url(#clip0_18_20)">
<path d="M358.959 190.907C355.897 182.927 350.534 176.037 343.551 171.111C336.567 166.184 328.277 163.443 319.733 163.234C311.189 163.026 302.776 165.36 295.56 169.941C288.345 174.521 282.653 181.142 279.206 188.963C275.759 196.783 274.712 205.451 276.199 213.868C277.686 222.284 281.639 230.069 287.557 236.235C293.476 242.401 301.092 246.67 309.44 248.501C317.788 250.332 326.492 249.642 334.447 246.519C339.724 244.497 344.547 241.451 348.64 237.555C352.733 233.659 356.013 228.991 358.292 223.821C360.571 218.65 361.803 213.08 361.918 207.43C362.032 201.781 361.027 196.165 358.959 190.907ZM331.506 239.42C326.683 241.222 321.524 241.948 316.391 241.545C311.258 241.142 306.275 239.622 301.792 237.09C297.309 234.558 293.434 231.075 290.44 226.887C287.445 222.699 285.403 217.906 284.456 212.845C283.509 207.785 283.681 202.578 284.96 197.59C286.239 192.603 288.593 187.956 291.858 183.974C295.123 179.993 299.219 176.774 303.86 174.544C308.5 172.313 313.572 171.125 318.721 171.062C325.851 171.059 332.815 173.216 338.695 177.249C344.576 181.281 349.097 187 351.664 193.652C353.36 197.968 354.189 202.575 354.104 207.212C354.018 211.848 353.02 216.422 351.166 220.672C349.312 224.923 346.639 228.766 343.299 231.983C339.96 235.2 336.019 237.727 331.702 239.42H331.506Z" fill="#B82F52"/>
<path d="M379.823 312.171L359.234 263.344C358.828 262.453 358.105 261.746 357.205 261.361C356.305 260.977 355.294 260.942 354.37 261.265L353.468 261.618L350.841 254.794C361.538 247.655 369.556 237.16 373.63 224.961C377.704 212.763 377.603 199.556 373.343 187.421C369.082 175.287 360.904 164.915 350.099 157.941C339.293 150.967 326.474 147.788 313.661 148.903V148.511C313.662 144.384 312.036 140.424 309.136 137.487C306.236 134.551 302.297 132.875 298.17 132.824H145.688C141.527 132.824 137.537 134.477 134.595 137.419C131.653 140.36 130 144.351 130 148.511V362.646C130 366.806 131.653 370.796 134.595 373.738C137.537 376.68 141.527 378.333 145.688 378.333H298.17C302.297 378.282 306.236 376.606 309.136 373.67C312.036 370.733 313.662 366.772 313.661 362.646V264.128C315.387 264.128 317.152 264.363 318.877 264.363C321.899 264.351 324.915 264.102 327.898 263.618L330.565 270.482L329.663 270.835C328.719 271.214 327.96 271.945 327.545 272.874C327.153 273.829 327.153 274.9 327.545 275.855L348.056 324.525C349.277 327.702 351.427 330.438 354.225 332.375C357.023 334.313 360.34 335.363 363.744 335.389C365.741 335.403 367.723 335.044 369.587 334.33C370.392 334.024 371.178 333.671 371.94 333.271C375.624 331.344 378.466 328.124 379.921 324.23C381.376 320.336 381.341 316.041 379.823 312.171ZM298.17 370.568H145.688C143.607 370.568 141.612 369.741 140.141 368.27C138.67 366.799 137.844 364.804 137.844 362.724V148.354C137.844 146.274 138.67 144.279 140.141 142.808C141.612 141.337 143.607 140.511 145.688 140.511H298.17C300.25 140.511 302.245 141.337 303.716 142.808C305.187 144.279 306.014 146.274 306.014 148.354V150.002C303.259 150.638 300.547 151.451 297.895 152.433L296.523 153.021C296.334 152.182 295.875 151.428 295.216 150.875C294.557 150.322 293.735 150.002 292.875 149.962H150.786C149.746 149.962 148.748 150.376 148.013 151.111C147.277 151.847 146.864 152.844 146.864 153.884V357.469C146.864 358.509 147.277 359.506 148.013 360.242C148.748 360.977 149.746 361.391 150.786 361.391H292.915C293.955 361.391 294.952 360.977 295.688 360.242C296.423 359.506 296.837 358.509 296.837 357.469V259.892C299.853 261.162 302.977 262.16 306.171 262.873V362.646C306.181 363.696 305.981 364.737 305.582 365.708C305.183 366.679 304.592 367.56 303.846 368.299C303.1 369.038 302.213 369.62 301.238 370.009C300.263 370.399 299.22 370.589 298.17 370.568ZM264.913 227.38C269.577 239.355 278.089 249.439 289.11 256.049V353.547H270.56V284.169C270.705 283.591 270.716 282.987 270.593 282.404C270.469 281.82 270.214 281.273 269.848 280.803C269.481 280.333 269.012 279.953 268.476 279.691C267.94 279.43 267.352 279.294 266.756 279.294C266.16 279.294 265.571 279.43 265.035 279.691C264.5 279.953 264.031 280.333 263.664 280.803C263.297 281.273 263.042 281.82 262.919 282.404C262.795 282.987 262.807 283.591 262.952 284.169V353.547H247.931V307.739C247.718 306.891 247.228 306.139 246.539 305.601C245.85 305.063 245.001 304.771 244.127 304.771C243.252 304.771 242.403 305.063 241.714 305.601C241.025 306.139 240.535 306.891 240.322 307.739V353.547H225.341V315.348C225.128 314.5 224.638 313.747 223.949 313.209C223.26 312.671 222.411 312.379 221.537 312.379C220.662 312.379 219.813 312.671 219.124 313.209C218.435 313.747 217.945 314.5 217.732 315.348V353.547H202.712V304.563C202.499 303.715 202.009 302.962 201.32 302.424C200.631 301.886 199.782 301.594 198.907 301.594C198.033 301.594 197.184 301.886 196.495 302.424C195.805 302.962 195.316 303.715 195.103 304.563V353.547H180.082V326.368C180.227 325.79 180.238 325.186 180.115 324.603C179.992 324.02 179.737 323.472 179.37 323.002C179.003 322.532 178.534 322.152 177.998 321.89C177.463 321.629 176.874 321.493 176.278 321.493C175.682 321.493 175.094 321.629 174.558 321.89C174.022 322.152 173.553 322.532 173.186 323.002C172.819 323.472 172.565 324.02 172.441 324.603C172.318 325.186 172.329 325.79 172.474 326.368V353.547H154.59V157.453H287.934C276.592 164.639 268.096 175.539 263.897 188.293C259.698 201.046 260.057 214.862 264.913 227.38ZM310.406 256.049C300.11 254.289 290.616 249.368 283.243 241.969C275.87 234.57 270.982 225.059 269.257 214.757C267.533 204.454 269.058 193.87 273.62 184.474C278.183 175.077 285.557 167.333 294.719 162.316C296.644 161.261 298.635 160.331 300.68 159.532C303.849 158.294 307.134 157.375 310.485 156.786C317.713 155.546 325.125 155.899 332.202 157.822C339.28 159.744 345.852 163.189 351.459 167.916C357.066 172.643 361.573 178.538 364.665 185.188C367.757 191.838 369.359 199.084 369.359 206.418C369.359 213.752 367.757 220.997 364.665 227.647C361.573 234.298 357.066 240.192 351.459 244.919C345.852 249.646 339.28 253.091 332.202 255.014C325.125 256.936 317.713 257.29 310.485 256.049H310.406ZM335.31 261.932C336.8 261.5 338.291 261.03 339.781 260.442C341.241 259.881 342.668 259.24 344.056 258.52L346.291 264.324L337.546 267.736L335.31 261.932ZM368.411 326.525C367.853 326.823 367.277 327.085 366.685 327.31C364.381 328.115 361.851 327.978 359.648 326.928C357.444 325.877 355.745 323.999 354.92 321.701L336.055 276.482L353.547 269.658L372.764 314.956C373.598 317.072 373.623 319.422 372.835 321.556C372.046 323.69 370.499 325.459 368.489 326.525H368.411Z" fill="#B82F52"/>
<path d="M176.827 235.538C177.867 235.538 178.865 235.124 179.6 234.389C180.336 233.653 180.749 232.656 180.749 231.616V212.006C180.894 211.428 180.905 210.824 180.782 210.241C180.658 209.658 180.404 209.11 180.037 208.64C179.67 208.17 179.201 207.79 178.665 207.529C178.129 207.267 177.541 207.131 176.945 207.131C176.349 207.131 175.76 207.267 175.225 207.529C174.689 207.79 174.22 208.17 173.853 208.64C173.486 209.11 173.231 209.658 173.108 210.241C172.985 210.824 172.996 211.428 173.141 212.006V231.616C173.139 232.616 173.52 233.58 174.205 234.309C174.89 235.038 175.828 235.478 176.827 235.538Z" fill="#B82F52"/>
<path d="M221.105 235.538C222.145 235.538 223.143 235.124 223.878 234.389C224.614 233.653 225.027 232.656 225.027 231.616V194.123C224.814 193.275 224.325 192.522 223.635 191.984C222.946 191.446 222.097 191.154 221.223 191.154C220.349 191.154 219.499 191.446 218.81 191.984C218.121 192.522 217.631 193.275 217.419 194.123V231.733C217.446 232.714 217.84 233.648 218.522 234.352C219.205 235.056 220.126 235.479 221.105 235.538Z" fill="#B82F52"/>
<path d="M198.986 235.538C200.026 235.538 201.023 235.124 201.759 234.389C202.494 233.653 202.908 232.656 202.908 231.616V202.515C202.695 201.667 202.205 200.915 201.516 200.377C200.827 199.839 199.978 199.547 199.103 199.547C198.229 199.547 197.38 199.839 196.691 200.377C196.002 200.915 195.512 201.667 195.299 202.515V231.733C195.327 232.714 195.721 233.648 196.403 234.352C197.086 235.056 198.007 235.479 198.986 235.538Z" fill="#B82F52"/>
<path d="M239.42 235.538C240.46 235.538 241.458 235.124 242.194 234.389C242.929 233.653 243.342 232.656 243.342 231.616V179.925C243.13 179.077 242.64 178.325 241.951 177.787C241.261 177.249 240.412 176.957 239.538 176.957C238.664 176.957 237.815 177.249 237.125 177.787C236.436 178.325 235.946 179.077 235.734 179.925V231.733C235.761 232.714 236.155 233.648 236.838 234.352C237.52 235.056 238.442 235.479 239.42 235.538Z" fill="#B82F52"/>
<path d="M245.695 257.147C244.854 257.392 244.119 257.912 243.607 258.624C243.095 259.336 242.837 260.198 242.873 261.074C242.909 261.95 243.238 262.788 243.806 263.456C244.375 264.123 245.15 264.581 246.009 264.756L251.578 264.52L221.262 295.229L206.83 279.031C206.131 278.303 205.179 277.873 204.171 277.829C203.163 277.785 202.177 278.131 201.417 278.796L166.748 310.995C166.064 311.722 165.683 312.683 165.683 313.681C165.683 314.679 166.064 315.64 166.748 316.368C167.108 316.745 167.54 317.047 168.018 317.256C168.496 317.465 169.011 317.576 169.533 317.583C170.491 317.571 171.412 317.208 172.121 316.564L203.731 286.875L218.321 303.308C218.673 303.688 219.096 303.994 219.568 304.21C220.039 304.425 220.548 304.545 221.066 304.563C221.585 304.59 222.104 304.502 222.585 304.305C223.067 304.109 223.499 303.808 223.85 303.425L256.99 269.854V275.345C256.989 276.345 257.369 277.309 258.055 278.038C258.74 278.767 259.678 279.207 260.677 279.267C261.678 279.268 262.641 278.888 263.37 278.202C264.099 277.517 264.539 276.579 264.599 275.58L265.03 260.363C265.038 259.84 264.942 259.321 264.747 258.836C264.551 258.351 264.261 257.911 263.893 257.539C263.673 257.36 263.437 257.203 263.187 257.069C263.013 256.937 262.829 256.819 262.638 256.716C262.338 256.678 262.035 256.678 261.736 256.716H261.187L245.695 257.147Z" fill="#B82F52"/>
</g>
<defs>
<clipPath id="clip0_18_20">
<rect width="251" height="251" fill="white" transform="translate(130 130)"/>
</clipPath>
</defs>
</svg>
